<?xml version="1.0" encoding="iso-8859-1"?>
<!-- Generator: Adobe Illustrator 19.0.0, SVG Export Plug-In . SVG Version: 6.00 Build 0)  -->
<svg version="1.1" id="Capa_1" xmlns="http://www.w3.org/2000/svg" xmlns:xlink="http://www.w3.org/1999/xlink" x="0px" y="0px"
	 viewBox="0 0 386.617 386.617" style="enable-background:new 0 0 386.617 386.617;" xml:space="preserve">
<g>
	<g>
		<path d="M349.869,84.591L228.748,9.142c-19.564-12.187-51.306-12.192-70.879,0L36.748,84.591
			c-19.564,12.187-19.573,31.96,0,44.152l121.121,75.449c19.564,12.187,51.306,12.192,70.879,0l121.121-75.449
			C369.433,116.556,369.442,96.783,349.869,84.591z M211.584,168.669c-9.98,6.333-26.202,6.307-36.14,0l-97.578-61.923
			l97.578-61.734c9.98-6.314,26.202-6.287,36.14,0l97.578,61.734L211.584,168.669z"/>
	</g>
</g>
<g>
	<g>
		<path d="M349.869,172.542l-2.527-1.574l-127.273,80.305l-0.047-0.007l-8.438,5.354c-9.98,6.333-26.202,6.307-36.14,0
			l-97.578-61.923l0.022-0.014l-38.131-24.017l-3.01,1.875c-19.564,12.187-19.573,31.96,0,44.152l121.121,75.449
			c19.564,12.187,51.306,12.192,70.879,0l121.121-75.449C369.433,204.507,369.442,184.734,349.869,172.542z"/>
	</g>
</g>
<g>
	<g>
		<path d="M349.869,257.875l-2.527-1.574l-127.273,80.305l-0.047-0.007l-8.438,5.354c-9.98,6.333-26.202,6.307-36.14,0
			L77.867,280.03l0.022-0.014L39.758,256l-3.01,1.875c-19.564,12.187-19.573,31.96,0,44.152l121.121,75.449
			c19.564,12.187,51.306,12.192,70.879,0l121.121-75.449C369.433,289.84,369.442,270.067,349.869,257.875z"/>
	</g>
</g>
<g>
</g>
<g>
</g>
<g>
</g>
<g>
</g>
<g>
</g>
<g>
</g>
<g>
</g>
<g>
</g>
<g>
</g>
<g>
</g>
<g>
</g>
<g>
</g>
<g>
</g>
<g>
</g>
<g>
</g>
</svg>
