<svg width="386.617" height="386.617" xmlns="http://www.w3.org/2000/svg">

 <g>
  <title>background</title>
  <rect fill="none" id="canvas_background" height="602" width="802" y="-1" x="-1"/>
 </g>
 <g>
  <title>Layer 1</title>
  <g id="svg_1">
   <g id="svg_2">
    <path fill="#ffffff" id="svg_3" d="m349.869,83.591l-121.121,-75.449c-19.564,-12.187 -51.306,-12.192 -70.879,0l-121.121,75.449c-19.564,12.187 -19.573,31.96 0,44.152l121.121,75.449c19.564,12.187 51.306,12.192 70.879,0l121.121,-75.449c19.564,-12.187 19.573,-31.96 0,-44.152zm-138.285,84.078c-9.98,6.333 -26.202,6.307 -36.14,0l-97.578,-61.923l97.578,-61.734c9.98,-6.314 26.202,-6.287 36.14,0l97.578,61.734l-97.578,61.923z"/>
   </g>
  </g>
  <g id="svg_4">
   <g id="svg_5">
    <path fill="#ffffff" id="svg_6" d="m349.869,172.542l-2.527,-1.574l-127.273,80.305l-0.047,-0.007l-8.438,5.354c-9.98,6.333 -26.202,6.307 -36.14,0l-97.578,-61.923l0.022,-0.014l-38.131,-24.017l-3.01,1.875c-19.564,12.187 -19.573,31.96 0,44.152l121.121,75.449c19.564,12.187 51.306,12.192 70.879,0l121.121,-75.449c19.565,-12.186 19.574,-31.959 0.001,-44.151z"/>
   </g>
  </g>
  <g id="svg_7">
   <g id="svg_8">
    <path fill="#ffffff" id="svg_9" d="m349.869,257.875l-2.527,-1.574l-127.273,80.305l-0.047,-0.007l-8.438,5.354c-9.98,6.333 -26.202,6.307 -36.14,0l-97.577,-61.923l0.022,-0.014l-38.131,-24.016l-3.01,1.875c-19.564,12.187 -19.573,31.96 0,44.152l121.121,75.449c19.564,12.187 51.306,12.192 70.879,0l121.121,-75.449c19.564,-12.187 19.573,-31.96 0,-44.152z"/>
   </g>
  </g>
  <g id="svg_10"/>
  <g id="svg_11"/>
  <g id="svg_12"/>
  <g id="svg_13"/>
  <g id="svg_14"/>
  <g id="svg_15"/>
  <g id="svg_16"/>
  <g id="svg_17"/>
  <g id="svg_18"/>
  <g id="svg_19"/>
  <g id="svg_20"/>
  <g id="svg_21"/>
  <g id="svg_22"/>
  <g id="svg_23"/>
  <g id="svg_24"/>
 </g>
</svg>